<?xml version="1.0" encoding="iso-8859-1"?>
<!-- Generator: Adobe Illustrator 27.9.0, SVG Export Plug-In . SVG Version: 6.00 Build 0)  -->
<svg version="1.1" id="mining" xmlns="http://www.w3.org/2000/svg" xmlns:xlink="http://www.w3.org/1999/xlink" x="0px" y="0px"
	 viewBox="0 0 32 32" style="enable-background:new 0 0 32 32;" xml:space="preserve">
<path style="opacity:0.25;" d="M8,24v-2v-2H6H4H2v2v2c0,3.308,2.692,6,6,6h2h2v-2v-2v-2h-2H8z"/>
<path style="opacity:0.25;" d="M24,2h-2h-2v2v2v2h2h2v2v0.025C23.162,9.391,22.13,9,21,9c-1.131,0-2.164,0.392-3.003,1.028
	C17.997,10.018,18,10.01,18,10c0-2.206-1.794-4-4-4c-0.732,0-1.409,0.212-2,0.556V6V4V2h-2H8C4.692,2,2,4.692,2,8v2v2h2h2h2v-2V8h2
	h0.556C10.212,8.591,10,9.268,10,10c0,0.756,0.223,1.456,0.589,2.06C10.395,12.031,10.202,12,10,12c-2.206,0-4,1.794-4,4
	c0,2.206,1.794,4,4,4s4-1.794,4-4c0-0.756-0.223-1.456-0.589-2.06C13.605,13.969,13.798,14,14,14c0.756,0,1.456-0.223,2.06-0.589
	C16.036,13.607,16,13.798,16,14c0,1.643,0.807,3.092,2.035,4.004C18.023,18.003,18.012,18,18,18c-2.206,0-4,1.794-4,4
	c0,2.206,1.794,4,4,4c0.732,0,1.409-0.212,2-0.556V26v2v2h2h2c3.308,0,6-2.692,6-6v-2v-2h-2h-2h-2v2v2h-2h-0.556
	C21.788,23.409,22,22.732,22,22c0-1.225-0.565-2.31-1.436-3.044C20.71,18.969,20.851,19,21,19c2.757,0,5-2.243,5-5
	c0-0.712-0.154-1.386-0.424-2H26h2h2v-2V8C30,4.692,27.308,2,24,2z"/>
<circle style="fill:#FFFFFF;" cx="21" cy="14" r="3"/>
<circle style="fill:#FFFFFF;" cx="14" cy="10" r="2"/>
<circle style="fill:#FFFFFF;" cx="10" cy="16" r="2"/>
<circle style="fill:#FFFFFF;" cx="18" cy="22" r="2"/>
<path style="fill:#FFFFFF;" d="M6,10V8c0-1.103,0.897-2,2-2h2V4H8C5.791,4,4,5.791,4,8v2H6z"/>
<path style="fill:#FFFFFF;" d="M6,24v-2H4v2c0,2.209,1.791,4,4,4h2v-2H8C6.897,26,6,25.103,6,24z"/>
<path style="fill:#FFFFFF;" d="M26,8v2h2V8c0-2.209-1.791-4-4-4h-2v2h2C25.103,6,26,6.897,26,8z"/>
<path style="fill:#FFFFFF;" d="M26,22v2c0,1.103-0.897,2-2,2h-2v2h2c2.209,0,4-1.791,4-4v-2H26z"/>
</svg>
