<?xml version="1.0" encoding="utf-8"?>
<!-- Generator: Adobe Illustrator 28.1.0, SVG Export Plug-In . SVG Version: 6.00 Build 0)  -->
<svg version="1.1" id="mining" xmlns="http://www.w3.org/2000/svg" xmlns:xlink="http://www.w3.org/1999/xlink" x="0px" y="0px"
	 viewBox="0 0 32 32" style="enable-background:new 0 0 32 32;" xml:space="preserve">
<style type="text/css">
	.st0{opacity:0.25;}
	.st1{fill:#FFFFFF;}
</style>
<path class="st0" d="M24,2H8C4.7,2,2,4.7,2,8v16c0,3.3,2.7,6,6,6h16c3.3,0,6-2.7,6-6V8C30,4.7,27.3,2,24,2z M8,14.8h16l0,9.2H8V14.8
	z M8,8h16v0.6H8V8z"/>
<path class="st1" d="M24,4h-1h-1H8C5.8,4,4,5.8,4,8v14v1v1c0,2.2,1.8,4,4,4h1h1h14c2.2,0,4-1.8,4-4V10V9V8C28,5.8,26.2,4,24,4z M8,6
	h14h1h1c1.1,0,2,0.9,2,2v1v1v0.6H6V8C6,6.9,6.9,6,8,6z M24,26H10H9H8c-1.1,0-2-0.9-2-2v-1v-1v-9.2h20V24C26,25.1,25.1,26,24,26z"/>
</svg>
