<?xml version="1.0" encoding="utf-8"?>
<!-- Generator: Adobe Illustrator 27.9.0, SVG Export Plug-In . SVG Version: 6.00 Build 0)  -->
<svg version="1.1" id="Layer_1" xmlns="http://www.w3.org/2000/svg" xmlns:xlink="http://www.w3.org/1999/xlink" x="0px" y="0px"
	 viewBox="0 0 1112.9 915.8" style="enable-background:new 0 0 1112.9 915.8;" xml:space="preserve">
<style type="text/css">
	.st0{display:none;}
	.st1{display:inline;fill:#1B1464;}
	.st2{opacity:0.3;fill:#9083AD;enable-background:new    ;}
	.st3{opacity:0.3;fill:#DD445A;enable-background:new    ;}
	.st4{fill:#DD445A;enable-background:new    ;}
	.st5{opacity:0.3;fill:#5E90F3;enable-background:new    ;}
	.st6{fill:#5E90F3;enable-background:new    ;}
	.st7{opacity:0.3;fill:#67CBED;enable-background:new    ;}
	.st8{enable-background:new    ;}
	.st9{fill:#67CBED;enable-background:new    ;}
	.st10{opacity:0.4;fill:#E1C872;enable-background:new    ;}
	.st11{fill:#E1C872;enable-background:new    ;}
	.st12{opacity:0.3;fill:#AFDCAA;enable-background:new    ;}
	.st13{fill:#AFDCAA;enable-background:new    ;}
	.st14{opacity:0.2;fill:none;stroke:#6487ED;stroke-width:3;stroke-miterlimit:10;}
	.st15{fill:#FFFFFF;}
</style>
<g id="SourceMaps" class="st0">
	<rect x="-4.8" class="st1" width="1117.7" height="915.8"/>
</g>
<g id="regions">
	<g id="iyatequa">
		<polygon class="st2" points="323.3,689.2 366,704.6 377,745.3 420.3,741.1 476.9,808.8 478.5,854.9 374.5,888.3 320.4,853.7 
			286,866.9 187,773.4 194.5,722.4 181.7,706.4 125.7,726.4 111.7,709.4 114.7,674.4 96.7,654.4 140.7,625.4 183.7,642.4 
			199.7,642.4 199.7,610.4 185.7,576.4 158.7,539.4 138.7,545.4 115.7,522.4 106.7,482.4 58.7,455.4 58.7,445.8 72.7,427.4 
			73.7,422.4 83.8,422.4 140.7,400.4 153.7,405.4 152.5,427.9 162.7,452.4 142.7,474.4 158.7,501.4 171.7,512.4 183.7,511.4 
			206.7,483.4 218.7,479.4 258.7,499.4 258.7,509.1 265.7,513.4 306.7,516.4 336.7,489.4 349.7,469.4 401.7,474.4 410.7,483.4 
			411.7,496.4 431.7,524.4 429.7,536.4 403.7,556.4 404.7,575.4 478.7,627.4 503.7,610.4 543.7,625.4 531.7,653.4 506.7,664.4 
			522.7,695.4 482.7,715.4 460.7,702.4 446.7,676.4 447.7,667.4 412.7,625.4 392.7,625.4 376.7,649.4 329.7,638.4 318.7,646.4 
			311.7,667.4 		"/>
	</g>
	<g id="cangacian">
		<polygon class="st3" points="58.7,455.4 42.7,487.4 52.7,505.4 40.7,545.4 61.7,559.4 84.7,527.4 108.7,527.4 115.7,522.4 
			106.7,482.4 		"/>
		<polygon class="st3" points="153.7,405.4 169.7,401.4 202.7,373.4 208.7,376.4 215.7,390.4 205.7,433.4 225.2,457.4 255.7,453.4 
			258.7,499.4 218.7,479.4 206.7,483.4 183.7,511.4 171.7,512.4 158.7,501.4 142.7,474.4 162.7,452.4 152.5,427.9 		"/>
		<path class="st4" d="M105,483.7l-45.4-25.5L45,487.4l9.5,17.1l0.4,0.7l-0.2,0.8l-11.6,38.6l18.2,12.1l21.9-30.4l0.6-0.8h1h23.4
			l5.4-3.9L105,483.7z M107.1,522.4H84.7h-2.6l-1.5,2.1l-20.2,28.1l-13.9-9.3l10.9-36.5l0.6-2l-1-1.8l-8.7-15.7l12.5-24.9l41.5,23.3
			l7.8,34.6L107.1,522.4z"/>
		<path class="st4" d="M218.9,477.3l0.7,0.4l36.9,18.4l-2.6-40.4l-28.5,3.7l-1.1,0.1l-0.7-0.9l-19.4-24l-0.6-0.8l0.2-1l9.8-42.3
			l-6.4-12.8l-4.2-2.1l-32,27.1l-0.4,0.3l-0.5,0.1l-14.6,3.6l-1.2,20.6l10.1,24.1l0.5,1.2l-0.9,0.9l-19,20.9l15.1,25.4l12.1,10.2
			l10.3-0.9l22.5-27.3l0.4-0.4l0.5-0.2l12-4L218.9,477.3z M205.2,478.7l-1.4,0.5l-0.9,1.1l-21.7,26.4l-7.8,0.7l-10.8-9.1L148.9,475
			l17.5-19.3l2.1-2.4l-1.2-2.9l-9.8-23.4l1-17.7l12.4-3.1l1.1-0.3l0.9-0.8l30.5-25.9l1.6,0.8l5.4,10.9l-9.6,41.2l-0.6,2.4l1.5,1.9
			l19.4,24l1.8,2.2l2.8-0.4l25.3-3.3l2.1,32L221,474.9l-1.9-0.9l-2,0.7L205.2,478.7z"/>
	</g>
	<g id="hiigaran">
		<polygon class="st5" points="115.7,522.4 108.7,527.4 84.7,527.4 61.7,559.4 44.7,601.4 70.7,626.4 79.7,650.4 96.7,654.4 
			140.7,625.4 183.7,642.4 199.7,642.4 199.7,610.4 185.7,576.4 158.7,539.4 138.7,545.4 		"/>
		<path class="st6" d="M158,541.7l-18.6,5.6l-1.1,0.3l-0.8-0.8L115.5,525l-5.6,4l-0.5,0.4h-0.6h-23l-22.3,31l-16.4,40.5l25,24.1
			l0.3,0.3l0.2,0.4l8.6,23l15.1,3.6l43.3-28.5l0.9-0.6l1,0.4l42.6,16.9h13.6v-29.6L184,577.4L158,541.7z M194.7,637.4h-10
			l-42.1-16.6l-2.4-1l-2.2,1.4l-42.2,27.8l-12.3-2.9l-8.1-21.5l-0.4-1.1l-0.8-0.8l-23.6-22.7l15.5-38.3l21.2-29.4h21.4h1.6l1.3-0.9
			l3.6-2.5l20,20l2.1,2.1l2.9-0.9l16.6-5l24.6,33.7l13.4,32.5V637.4z"/>
	</g>
	<g id="yaot">
		<polygon class="st7" points="978.4,763.9 985,776.6 1062.8,776.2 1067.2,748.5 1054.6,734 1007.3,714.5 1007.7,655.9 
			1014.3,647.1 1004.5,633.5 900.5,585.6 863.1,587.1 854.7,578.4 867.7,538.4 832.7,501.4 826.7,485.4 807.7,480.4 776.7,426.4 
			739.7,447.1 739.7,474.4 791.7,486.4 776.7,514.4 787.7,536.4 768.7,552.4 740.7,537.4 732.7,537.4 718.7,555.4 692.7,557.4 
			662.4,524.4 652.7,520.4 606.7,537.4 543.7,533.2 531.7,516.4 489.6,516.4 479.7,514.4 431.7,524.4 429.7,536.4 403.7,556.4 
			404.7,575.4 478.7,627.4 503.7,610.4 543.7,625.4 550.7,625.4 575.7,656.4 573.7,679.4 560.7,683.4 537.7,700.4 546.7,731.4 
			581.7,752.4 583.7,762.4 687.7,815.4 693.7,803.4 801.7,800.4 808.7,798.4 850.7,800.4 867.7,818.4 920.7,799.4 940.1,755.1 		"/>
		<g class="st8">
			<polygon class="st9" points="787.7,536.4 787.7,536.4 778.2,544.4 			"/>
			
				<rect x="768.4" y="500.4" transform="matrix(0.4722 -0.8815 0.8815 0.4722 -27.2005 955.406)" class="st9" width="31.8" height="0"/>
			<path class="st9" d="M1005.7,655.9l0-0.7l0.4-0.5l5.7-7.6l-8.6-11.9l-103.1-47.5l-37,1.4l-0.9,0l-0.6-0.6l-8.3-8.6l-0.8-0.9
				l0.4-1.1l12.6-38.9l-34.2-36.1l-0.3-0.3l-0.1-0.4l-5.6-15l-18-4.7l-0.8-0.2l-0.4-0.7l-30-52.3l-34.3,19.2v24.5l50.4,11.6l2.5,0.6
				l-1.2,2.3L779,514.4l10.5,21.1l0.7,1.4l-1.2,1l-19,16l-1,0.9l-1.2-0.6l-27.6-14.8h-6.5l-13.4,17.2l-0.5,0.7l-0.9,0.1l-26,2
				l-1,0.1l-0.7-0.7l-30.1-32.7l-8.5-3.5l-45.3,16.7l-0.4,0.1l-0.4,0l-63-4.3l-0.9-0.1l-0.5-0.8l-11.4-15.9h-41.1h-0.2l-0.2,0
				l-9.4-1.9l-46.3,9.6l-1.8,10.6l-0.1,0.8L431,538l-25.2,19.4l0.9,17l72.1,50.6l23.9-16.2l0.9-0.6l1,0.4l39.7,14.9h6.6h1l0.6,0.7
				l25,31l0.5,0.6l-0.1,0.8l-2,23l-0.1,1.3l-1.3,0.4l-12.7,3.9l-21.6,16l8.4,28.9l34.3,20.6l0.8,0.5l0.2,0.9l1.8,9.1l101.3,51.6
				l5.1-10.2l0.5-1.1l1.2,0l107.7-3l6.8-1.9l0.3-0.1l0.3,0l42,2l0.8,0l0.6,0.6l16.1,17l51-18.3l19-43.5l0.7-1.5l1.6,0.4l38.3,8.9
				l0.9,0.2l0.4,0.8l6.1,11.5l74.9-0.3l4-25.1l-11.7-13.4l-46.8-19.4l-1.2-0.5l0-1.3L1005.7,655.9z M1005.4,719.1l46.2,19.1
				l10.3,11.8l-3.4,21.2l-70.5,0.3l-5.2-9.9l-1.1-2l-2.2-0.5l-38.3-8.9l-4-0.9l-1.7,3.8L917,795.4l-47.9,17.2L854.4,797l-1.4-1.5
				l-2-0.1l-42-2l-0.8,0l-0.8,0.2l-6.4,1.8l-107.4,3l-3,0.1l-1.3,2.7l-3.7,7.5l-97.4-49.6l-1.5-7.6l-0.4-2.2l-1.9-1.1l-33.3-20
				l-7.5-25.8l19.5-14.4l12.2-3.7l3.2-1l0.3-3.4l2-23l0.2-2l-1.3-1.6l-25-31l-1.5-1.9h-2.4h-6.1l-39.2-14.7l-2.4-0.9l-2.1,1.5
				l-22.1,15.1l-69.2-48.6l-0.7-13.9l23.9-18.4l1.6-1.2l0.3-1.9l1.4-8.6l43.6-9.1l8.8,1.8l0.5,0.1h0.5h39.6l10.5,14.7l1.4,1.9
				l2.4,0.2l63,4.3l1.1,0.1l1-0.4l44.2-16.3l6.8,2.8l29.6,32.2l1.6,1.8l2.4-0.2l26-2l2.2-0.2l1.4-1.7l12.5-16.1h4.3l26.9,14.4l3,1.6
				l2.6-2.2l19-16l3-2.5l-1.8-3.5l-9.8-19.7l13.8-25.7l3.1-5.8l-6.4-1.5l-48.1-11.1v-20.4l30.1-16.9l28.5,49.7l1,1.8l2,0.5l16.5,4.3
				l5.1,13.6l0.4,0.9l0.7,0.7l33,34.8L850,576.9l-0.9,2.9l2.1,2.2l8.3,8.6l1.6,1.6l2.2-0.1l36.3-1.4l101.7,46.8l6.8,9.5l-4.4,5.9
				l-1,1.3l0,1.7l-0.3,58.6l0,3.4L1005.4,719.1z"/>
			<polygon class="st9" points="1014.3,647.1 1014.3,647.1 1007.7,655.9 			"/>
			<polygon class="st9" points="858.9,582.7 854.7,578.4 854.7,578.4 			"/>
			<polygon class="st9" points="1062.8,776.2 985,776.6 1062.8,776.2 1067.2,748.5 			"/>
			<polygon class="st9" points="940.1,755.1 920.7,799.4 940.1,755.1 959.2,759.5 			"/>
			<polygon class="st9" points="1007.3,714.5 1007.3,714.5 1054.6,734 1067.2,748.5 1054.6,734 			"/>
			<polygon class="st9" points="537.7,700.4 546.7,731.4 537.7,700.4 			"/>
			<polygon class="st9" points="550.7,625.4 575.7,656.4 575.7,656.4 550.7,625.4 543.7,625.4 503.7,610.4 478.7,627.4 404.7,575.4 
				403.7,556.4 403.7,556.4 404.7,575.4 478.7,627.4 503.7,610.4 543.7,625.4 			"/>
			<polygon class="st9" points="807.7,480.4 826.7,485.4 832.7,501.4 867.7,538.4 867.7,538.4 832.7,501.4 826.7,485.4 807.7,480.4 
				776.7,426.4 739.7,447.1 776.7,426.4 			"/>
		</g>
	</g>
	<g id="tanoch">
		<polygon class="st10" points="284.8,62.1 296.2,59.2 326.9,80.4 326.9,109.1 334,112.1 405.7,91.5 440.1,52.5 495,62.1 
			505.9,101.4 492.3,114.5 487.3,146.9 525.4,177.1 534.3,179.1 539.3,195 518.3,237 517.3,278.3 483.6,293.6 509.7,337 
			472.7,370.4 513.7,389.4 545.7,380.4 551.7,382.4 578.7,381.4 603.7,369.4 626.7,397.4 614.7,420.4 619.7,429.4 611.9,457.4 
			661.7,481.4 700.7,479.4 714.7,485.4 732.7,483 752.7,518.4 732.7,537.4 718.7,555.4 692.7,557.4 662.4,524.4 652.7,520.4 
			606.7,537.4 543.7,533.2 531.7,516.4 489.6,516.4 479.7,514.4 431.7,524.4 411.7,496.4 410.7,483.4 401.7,474.4 349.7,469.4 
			336.7,489.4 295.7,473.4 286.7,445.4 267.7,439.4 267.7,429.4 254.7,417.4 254.7,408 275.7,370.4 254.7,363.4 225.7,289.4 
			189.7,220.4 202.7,200.4 139.7,193.4 142.7,169.9 115.7,147.8 119.7,137.4 138.7,131.4 150.7,98.4 192.7,102.4 199.7,94 
			241.7,87.4 254.4,87.3 265.5,93.3 		"/>
		<g>
			<polygon class="st11" points="492.3,114.5 499.2,107.9 492.3,114.5 489.8,130.7 			"/>
			<polygon class="st11" points="483.6,293.6 483.6,293.6 512,280.7 			"/>
			<polygon class="st11" points="329.8,110.3 326.9,109.1 326.9,109.1 			"/>
			<polygon class="st11" points="509.7,337 490.2,304.6 509.7,337 			"/>
			<polygon class="st11" points="752.7,518.4 732.7,483 714.7,485.4 732.7,483 			"/>
			<path class="st11" d="M731.7,485.1l-16.7,2.3l-0.5,0.1l-0.5-0.2l-13.6-5.8l-38.5,2l-0.5,0l-0.5-0.2l-49.9-24l-1.5-0.7l0.5-1.6
				l7.6-27.2l-4.6-8.3l-0.5-0.9l0.5-1l11.4-21.8l-21.2-25.8l-23.6,11.3l-0.4,0.2l-0.4,0l-27,1l-0.4,0l-0.3-0.1l-5.4-1.8l-31.4,8.8
				l-0.7,0.2l-0.7-0.3l-41-19l-2.7-1.3l2.2-2l35.8-32.4l-25.3-42l-1.2-1.9l2-0.9l32.5-14.8l1-40l0-0.4l0.2-0.4l20.7-41.2l-4.4-14
				l-7.8-1.7l-0.4-0.1l-0.4-0.3L486,148.4l-0.9-0.7l0.2-1.2l5-32.3l0.1-0.7l0.5-0.5l12.7-12.3l-10.2-37l-52.6-9.2l-33.6,38.2
				l-0.4,0.4l-0.6,0.2L334.6,114l-0.7,0.2l-0.6-0.3l-7.2-3l-1.2-0.5v-1.3V81.5l-29.1-20.1l-9.7,2.5l-18.9,30.5l-1,1.6l-1.7-0.9
				l-10.7-5.7l-12,0.1l-41.1,6.4l-6.5,7.9l-0.7,0.8l-1.1-0.1l-40.5-3.9l-11.5,31.5l-0.3,0.9l-0.9,0.3l-18.1,5.7l-3.1,8.2l25.9,21.1
				l0.9,0.7l-0.1,1.1l-2.7,21.5l61,6.8l3.2,0.4l-1.8,2.7l-12.4,19l35.5,68l0,0.1l0,0.1l28.7,73.1l20.1,6.7l2.3,0.8l-1.2,2.1
				l-20.7,37.1v8l12.4,11.4l0.6,0.6v0.9v8.5l17.6,5.6l1,0.3l0.3,1l8.7,27.1L336,487l12.1-18.6l0.7-1l1.2,0.1l52,5l0.7,0.1l0.5,0.5
				l9,9l0.5,0.5l0.1,0.7l1,12.4l18.9,26.5l46.7-9.7l0.4-0.1l0.4,0.1l9.6,2h42h1l0.6,0.8l11.5,16l61.6,4.2l45.6-16.9l0.7-0.3l0.7,0.3
				l9.6,4l0.4,0.2l0.3,0.3l29.7,32.3l24.1-1.9l13.5-17.3l0.1-0.1l0.1-0.1l18.9-17.9L731.7,485.1z M729.3,533.8l-0.3,0.3l-0.2,0.3
				l-12.6,16.3l-21.4,1.6L666.1,521l-0.7-0.8l-1-0.4l-9.6-4l-1.8-0.8l-1.8,0.7l-45,16.6l-59.6-4l-10.6-14.8l-1.5-2.1h-2.6h-41.7
				l-9.4-1.9l-1-0.2l-1,0.2l-44.8,9.3l-17.3-24.2l-0.9-11.6l-0.1-1.8l-1.3-1.3l-9-9l-1.3-1.3l-1.8-0.2l-52-5l-3-0.3l-1.7,2.5
				l-10.8,16.6l-35-13.7l-8.3-25.7l-0.8-2.5l-2.5-0.8l-15.5-4.9v-6.3v-2.2l-1.6-1.5l-11.4-10.5v-5.9l20.4-36.4l2.9-5.3l-5.7-1.9
				l-18.8-6.3l-28.1-71.8l-0.1-0.3l-0.1-0.2l-34.6-66.4l11.4-17.6l4.4-6.8l-8.1-0.9l-57.9-6.4l2.4-18.5l0.4-2.8l-2.1-1.8l-24.2-19.8
				l1.8-4.8l16.7-5.3l2.4-0.7l0.8-2.3l10.7-29.4l38.1,3.6l2.6,0.3l1.7-2l5.8-7l39.8-6.2l11-0.1l10,5.3l4.1,2.2l2.5-4L288,66.5
				l7.2-1.9L321.9,83v26.1v3.3l3.1,1.3l7.2,3l1.6,0.7l1.7-0.5l71.7-20.5l1.4-0.4l1-1.1l32.5-37l49,8.6l9.2,33.4l-11.5,11l-1.2,1.2
				l-0.3,1.7l-5,32.3l-0.4,2.9l2.3,1.8l38.2,30.3l0.9,0.7l1.1,0.2l6.1,1.3l3.5,11.2l-20.1,40.1l-0.5,1l0,1.1l-0.9,38.2l-30.8,14
				l-5.1,2.3l2.9,4.8l24,39.8l-33.9,30.7l-5.6,5.1l6.9,3.2l41,19l1.7,0.8l1.8-0.5l30.5-8.6l4.5,1.5l0.9,0.3l0.9,0l27-1l1,0l0.9-0.5
				l21.5-10.3l18.4,22.4l-10.5,20.1l-1.2,2.4l1.3,2.3l4,7.2l-7.3,26l-1.1,4l3.8,1.8l49.9,24l1.1,0.6l1.3-0.1l37.8-1.9l12.9,5.5
				l1.3,0.5l1.4-0.2l14.6-2l16.4,29.1L729.3,533.8z"/>
			<polygon class="st11" points="225.7,289.4 189.7,220.4 189.7,220.4 225.7,289.4 240.2,326.4 			"/>
			
				<rect x="129.2" y="141.4" transform="matrix(0.6325 -0.7746 0.7746 0.6325 -75.5558 158.499)" class="st11" width="0" height="34.9"/>
			<polygon class="st11" points="539.3,195 518.3,237 539.3,195 535.5,182.9 			"/>
			
				<rect x="171.2" y="165.2" transform="matrix(0.1104 -0.9939 0.9939 0.1104 -43.3795 345.3738)" class="st11" width="0" height="63.4"/>
			<polygon class="st11" points="199.7,94 220.7,90.7 199.7,94 196.2,98.2 			"/>
			<polygon class="st11" points="487.3,146.9 525.4,177.1 487.3,146.9 			"/>
			
				<rect x="256.8" y="77.7" transform="matrix(0.5264 -0.8503 0.8503 0.5264 64.2661 270.7649)" class="st11" width="36.6" height="0"/>
			<polygon class="st11" points="440.1,52.5 467.6,57.3 440.1,52.5 424,70.8 			"/>
		</g>
		<polygon class="st10" points="95.7,197.4 131.5,197.4 140.7,227.4 144.7,231.4 166.7,233.4 165.7,254.4 148.7,266.4 112.7,251.4 
			111.7,247.4 94.7,243.4 84.7,229.4 		"/>
		<path class="st11" d="M143.8,233.3l-0.5-0.5l-4-4l-0.4-0.4l-0.1-0.5l-8.8-28.6H97.2L87,229.1l9,12.5l16.3,3.8l1.2,0.3l0.3,1.2
			l0.8,3l34.1,14.2l15.3-10.8l0.9-18.1l-20.1-1.8L143.8,233.3z M160.9,251.7l-12.7,9l-31.1-13l-0.4-1.6l-0.7-3l-3-0.7L97.7,239
			l-7.4-10.4l9-26.2h28.5l8.1,26.5l0.4,1.2l0.9,0.9l4,4l1.3,1.3l1.8,0.2l17.2,1.6L160.9,251.7z"/>
	</g>
	<g id="amassari">
		<polygon class="st12" points="874.7,103.4 806.7,120.1 811.7,135.4 775.7,181.4 758.7,184.4 742.7,220.2 746.7,229.4 739.7,258.4 
			717.7,271.4 686.5,271.4 671.7,304.4 723.7,338.4 729.7,355.4 736.6,355.4 810.7,389.4 830.7,381.4 923.7,444.4 1006.7,395.4 
			1041.7,398.4 1015.7,334.4 996.7,313.4 973.7,235.4 918.7,219.4 906.7,220.4 864.7,174.4 862.7,159.4 888.7,123.4 		"/>
		<path class="st13" d="M1038.7,396.1l-24.6-60.6l-18.8-20.7l-0.3-0.3l-0.1-0.4l-22.7-77l-53.6-15.6l-11.6,1l-1,0.1l-0.7-0.7l-42-46
			l-0.4-0.5l-0.1-0.6l-2-15l-0.1-0.8l0.5-0.6l25.2-34.8l-12.4-17.7l-64.6,15.8l4.3,13.3l0.3,1l-0.7,0.8l-36,46l-0.5,0.6l-0.8,0.1
			l-16,2.8l-15.2,34l3.6,8.4l0.3,0.6l-0.2,0.7l-7,29l-0.2,0.8l-0.7,0.4l-22,13l-0.5,0.3h-0.5h-30l-13.5,30.3l50.6,33.1l0.6,0.4
			l0.2,0.6l5.5,15.7h5.4h0.4l0.4,0.2l73.4,33.6l19.2-7.7l1-0.4l0.9,0.6l92,62.3l81.9-48.4l0.6-0.3l0.6,0.1L1038.7,396.1z
			 M1005.6,390.3l-1.4,0.8l-80.3,47.4l-90.4-61.2l-2.2-1.5l-2.5,1l-18,7.2l-72.2-33.1l-1-0.5h-1.1h-3.3l-4.8-13.7l-0.6-1.6l-1.4-0.9
			l-48.4-31.7l11.7-26.1h28h1.4l1.2-0.7l22-13l1.8-1.1l0.5-2.1l7-29l0.4-1.6l-0.7-1.5l-3.1-7.2l14-31.4l14.4-2.5l1.9-0.3l1.2-1.5
			l36-46l1.6-2.1l-0.8-2.5l-3.3-10.2l59.4-14.6l10,14.3l-23.9,33.1l-1.2,1.6l0.3,2l2,15l0.2,1.6l1.1,1.2l42,46l1.7,1.8l2.5-0.2
			l11.1-0.9l51.5,15l22.2,75.4l0.3,1.1l0.8,0.8l18.4,20.3l22.6,55.6l-26.9-2.3L1005.6,390.3z"/>
	</g>
</g>
<g id="decoration">
	<path class="st14" d="M701.4,109.4c0-9.4-6-17.5-14.8-21.7c1.7-2.6,2.7-5.5,2.7-8.7c0-9.5-8.8-17.2-19.7-17.2
		c-10.9,0-19.7,7.7-19.7,17.2c0,4.5,2,8.5,5.2,11.6c-5.7,4.3-9.5,10.5-9.9,17.5c-4.6-1.4-9.6-2.1-14.7-2.1
		c-25.3,0-45.8,18-45.8,40.1c0,2.7,0.3,5.4,0.9,8c-12.1,2.1-21.2,11.5-21.2,22.7c0,12.8,11.9,23.2,26.5,23.2
		c11.7,0,21.6-6.6,25.1-15.9c4.6,1.3,9.4,2.1,14.5,2.1c25.3,0,45.8-18,45.8-40.1c0-4.3-0.8-8.4-2.2-12.2
		C689.3,133.6,701.4,122.7,701.4,109.4z"/>
	<path class="st14" d="M761.5,362.8c-14.6,0-27.6,6.4-35.4,16.1c-6.3-5.4-14.9-8.8-24.4-8.8c-2.2,0-4.3,0.2-6.3,0.5
		c4.4-6.4,6.9-13.9,6.9-21.8c0-14.8-8.7-27.9-21.8-35.5c3.7-5,5.9-11,5.9-17.4c0-17.7-16.3-32-36.5-32c-10.3,0-19.6,3.8-26.3,9.8
		c-1.6-11.5-12.7-20.4-26.3-20.4c-14.6,0-26.5,10.4-26.5,23.2c0,12.8,11.9,23.2,26.5,23.2c6.1,0,11.6-1.8,16.1-4.8
		c0,0.3,0,0.6,0,0.9c0,7.8,3.2,15,8.6,20.6c-10.4,7.8-17,19.4-17,32.4c0,23.5,21.8,42.6,48.7,42.6c5.6,0,10.9-0.8,15.9-2.3
		c-1.7,3.6-2.6,7.4-2.6,11.5c0,16.8,15.6,30.5,34.8,30.5c9.5,0,18.1-3.3,24.4-8.8c7.8,9.8,20.8,16.1,35.4,16.1
		c23.9,0,43.2-17,43.2-37.9S785.4,362.8,761.5,362.8z"/>
	<ellipse class="st14" cx="827.1" cy="455.8" rx="23.3" ry="20.4"/>
	<path class="st14" d="M980.2,531.7c-6.5,0-12.6,1.8-17.6,4.9c-4.1-17.1-21.4-29.9-42.1-29.9c-23.8,0-43,16.9-43,37.7
		s19.3,37.7,43,37.7c12.5,0,23.7-4.6,31.5-12.1c4.7,9.6,15.6,16.4,28.1,16.4c17,0,30.7-12.2,30.7-27.3S997.2,531.7,980.2,531.7z"/>
	<ellipse class="st14" cx="996.8" cy="489.1" rx="19.8" ry="17.6"/>
	<ellipse class="st14" cx="746.5" cy="40.3" rx="16.1" ry="14.3"/>
</g>
<g id="systems">
	<circle id="Kaluari" class="st15" cx="77.7" cy="491.4" r="1"/>
	<circle id="Larinca" class="st15" cx="65.9" cy="528.3" r="1"/>
	<circle id="Kriitana" class="st15" cx="96.9" cy="513.3" r="1"/>
	<circle id="Cancava" class="st15" cx="190.2" cy="403.5" r="1"/>
	<circle id="Lura" class="st15" cx="172.2" cy="423.5" r="1"/>
	<circle id="Ze_Tavaan" class="st15" cx="184.2" cy="480.5" r="1"/>
	<circle id="Larcava" class="st15" cx="205.2" cy="460.5" r="1"/>
	<circle id="Bescava" class="st15" cx="243.2" cy="473.5" r="1"/>
	<circle id="Saaret" class="st15" cx="79.1" cy="586.9" r="1"/>
	<circle id="Toasiim" class="st15" cx="89.1" cy="541.9" r="1"/>
	<circle id="Lazarus" class="st15" cx="97.1" cy="551.9" r="1"/>
	<circle id="Sumaar" class="st15" cx="137.1" cy="567.9" r="1"/>
	<circle id="Jonalli" class="st15" cx="151.1" cy="562.9" r="1"/>
	<circle id="Fer_Lamaan" class="st15" cx="113.1" cy="611.9" r="1"/>
	<circle id="Roa_Tisaad" class="st15" cx="124.1" cy="586.9" r="1"/>
	<circle id="Iniim" class="st15" cx="142.1" cy="595.7" r="1"/>
	<circle id="Mitorai" class="st15" cx="175.1" cy="605.7" r="1"/>
	<circle id="Subaca" class="st15" cx="768.8" cy="460.6" r="1"/>
	<circle id="Tinjo" class="st15" cx="800.8" cy="519.6" r="1"/>
	<circle id="Tocon" class="st15" cx="835.8" cy="542.6" r="1"/>
	<circle id="Ayotla" class="st15" cx="109" cy="220.3" r="1"/>
	<circle id="Tlatlan" class="st15" cx="140" cy="245.3" r="1"/>
	<circle id="Chiapa" class="st15" cx="172.3" cy="111" r="1"/>
	<circle id="Teozacoz" class="st15" cx="150.9" cy="152.3" r="1"/>
	<circle id="Ixtepec" class="st15" cx="158.9" cy="178.3" r="1"/>
	<circle id="Cuilco" class="st15" cx="191.6" cy="128.4" r="1"/>
	<circle id="Axocotil" class="st15" cx="218.6" cy="100.4" r="1"/>
	<circle id="Tuxpante" class="st15" cx="246.1" cy="133.8" r="1"/>
	<circle id="Tochteop" class="st15" cx="258.5" cy="115.7" r="1"/>
	<circle id="Acatla" class="st15" cx="256.7" cy="175.4" r="1"/>
	<circle id="Misantep" class="st15" cx="316.7" cy="141.4" r="1"/>
	<circle id="Zempoalt" class="st15" cx="320.4" cy="195" r="1"/>
	<circle id="Tepec" class="st15" cx="341.4" cy="185" r="1"/>
	<circle id="Devadaasi" class="st15" cx="125.3" cy="422.7" r="1"/>
	<circle id="Marat_Kan" class="st15" cx="134.3" cy="440.7" r="1"/>
	<circle id="Niirea_Paas" class="st15" cx="103.3" cy="453.7" r="1"/>
	<circle id="Keid" class="st15" cx="132" cy="510.3" r="1"/>
	<circle id="Visaan_Ki" class="st15" cx="144" cy="526.2" r="1"/>
	<circle id="Kisho_Re" class="st15" cx="224" cy="508.3" r="1"/>
	<circle id="Sobel_Rem" class="st15" cx="236.4" cy="502.1" r="1"/>
	<circle id="Liusata" class="st15" cx="198.6" cy="541.7" r="1"/>
	<circle id="Tri_Tussali" class="st15" cx="246.7" cy="550.8" r="1"/>
	<circle id="Ulant_Ti_Saar" class="st15" cx="146.8" cy="654.2" r="1"/>
	<circle id="Veraatlan" class="st15" cx="162.8" cy="673.2" r="1"/>
	<circle id="Estraiir" class="st15" cx="142.8" cy="701.1" r="1"/>
	<circle id="Mituul" class="st15" cx="281.9" cy="652.4" r="1"/>
	<circle id="Jinvalla" class="st15" cx="248.9" cy="640.4" r="1"/>
	<circle id="Talessur" class="st15" cx="232.1" cy="598.3" r="1"/>
	<circle id="Xaleraat" class="st15" cx="220.1" cy="586.3" r="1"/>
	<circle id="Tela_Diim" class="st15" cx="286.3" cy="575.2" r="1"/>
	<circle id="Inayat" class="st15" cx="307" cy="614" r="1"/>
	<circle id="Faaleas" class="st15" cx="348.2" cy="580.8" r="1"/>
	<circle id="Nagaterada" class="st15" cx="368.2" cy="619.8" r="1"/>
	<circle id="Akalasaya" class="st15" cx="375.8" cy="570.4" r="1"/>
	<circle id="Saraal" class="st15" cx="296.8" cy="541.5" r="1"/>
	<circle id="Ariitar" class="st15" cx="287.8" cy="531.5" r="1"/>
	<circle id="Naredra" class="st15" cx="408.5" cy="601.2" r="1"/>
	<circle id="Kantalasa" class="st15" cx="436" cy="632" r="1"/>
	<circle id="Zaatas" class="st15" cx="482.1" cy="672.1" r="1"/>
	<circle id="Vaal" class="st15" cx="514.1" cy="637.1" r="1"/>
	<circle id="Briuun" class="st15" cx="502.1" cy="691.1" r="1"/>
	<circle id="Tibata" class="st15" cx="428.2" cy="573.8" r="1"/>
	<circle id="Samacon" class="st15" cx="472" cy="591.1" r="1"/>
	<circle id="Saami_Ra" class="st15" cx="464" cy="541.1" r="1"/>
	<circle id="Topaconta" class="st15" cx="504.8" cy="537.1" r="1"/>
	<circle id="Turmequi" class="st15" cx="527.6" cy="601.5" r="1"/>
	<circle id="Tenjaca" class="st15" cx="547.6" cy="595.5" r="1"/>
	<circle id="Jishun" class="st15" cx="332.5" cy="543.2" r="1"/>
	<circle id="Bishaan_Tel" class="st15" cx="335.2" cy="525.7" r="1"/>
	<circle id="Edowana" class="st15" cx="397" cy="528.6" r="1"/>
	<circle id="Ekaam_Nar" class="st15" cx="372" cy="499.6" r="1"/>
	<circle id="Dasdonak" class="st15" cx="858.8" cy="127.6" r="1"/>
	<circle id="Makatia" class="st15" cx="825.2" cy="172" r="1"/>
	<circle id="Kuubata" class="st15" cx="794.2" cy="216.4" r="1"/>
	<circle id="Anad" class="st15" cx="853.9" cy="207" r="1"/>
	<circle id="Canaxtela" class="st15" cx="819.8" cy="241.1" r="1"/>
	<circle id="Hataldan" class="st15" cx="935.8" cy="257.1" r="1"/>
	<circle id="Cansaga" class="st15" cx="909.6" cy="262.9" r="1"/>
	<circle id="Karisara" class="st15" cx="869.7" cy="284.8" r="1"/>
	<circle id="Manad" class="st15" cx="788.9" cy="258.7" r="1"/>
	<circle id="Venee" class="st15" cx="713.8" cy="296.6" r="1"/>
	<circle id="Dandita" class="st15" cx="759.8" cy="290.6" r="1"/>
	<circle id="Iliyin" class="st15" cx="769.4" cy="323.6" r="1"/>
	<circle id="Del" class="st15" cx="787.9" cy="343.7" r="1"/>
	<circle id="Vandita" class="st15" cx="899.8" cy="312.8" r="1"/>
	<circle id="Ventala" class="st15" cx="916.9" cy="323.8" r="1"/>
	<circle id="Xibalba" class="st15" cx="904.7" cy="343.7" r="1"/>
	<circle id="Antaltan" class="st15" cx="893.6" cy="367.7" r="1"/>
	<circle id="Tocata" class="st15" cx="750" cy="567.3" r="1"/>
	<circle id="Toba" class="st15" cx="797.1" cy="565.3" r="1"/>
	<circle id="Ytep" class="st15" cx="705" cy="588.3" r="1"/>
	<circle id="Teuasia" class="st15" cx="785.1" cy="621.3" r="1"/>
	<circle id="Charaipaqu" class="st15" cx="820.1" cy="607.3" r="1"/>
	<circle id="Paipaga" class="st15" cx="672.2" cy="607.2" r="1"/>
	<circle id="Tunda_Miraan" class="st15" cx="659.2" cy="562.2" r="1"/>
	<circle id="Zipate" class="st15" cx="569.3" cy="559.3" r="1"/>
	<circle id="Subacuy" class="st15" cx="627.9" cy="619.5" r="1"/>
	<circle id="Teuascate" class="st15" cx="590.9" cy="631.5" r="1"/>
	<circle id="Ziipaga" class="st15" cx="610.8" cy="668.3" r="1"/>
	<circle id="Charatl" class="st15" cx="580.7" cy="707.4" r="1"/>
	<circle id="Tiba" class="st15" cx="631.9" cy="742.2" r="1"/>
	<circle id="Chocata" class="st15" cx="707.6" cy="726.4" r="1"/>
	<circle id="Topa" class="st15" cx="767.8" cy="758.3" r="1"/>
	<circle id="Yaotl" class="st15" cx="736" cy="673.1" r="1"/>
	<circle id="Ubacontl" class="st15" cx="836.6" cy="754.5" r="1"/>
	<circle id="Topaque" class="st15" cx="886.6" cy="745.4" r="1"/>
	<circle id="Rama" class="st15" cx="910.6" cy="760.4" r="1"/>
	<circle id="Sabio" class="st15" cx="892.6" cy="784.4" r="1"/>
	<circle id="Oica" class="st15" cx="815.3" cy="688.2" r="1"/>
	<circle id="Jona_Amaan" class="st15" cx="855.4" cy="649.2" r="1"/>
	<circle id="Paia" class="st15" cx="902.1" cy="609.3" r="1"/>
	<circle id="Usmequesca" class="st15" cx="960.6" cy="642.2" r="1"/>
	<circle id="Onza" class="st15" cx="890.6" cy="669.2" r="1"/>
	<circle id="Usmequira" class="st15" cx="1026.5" cy="746.6" r="1"/>
	<circle id="Chara" class="st15" cx="957.5" cy="719.5" r="1"/>
	<circle id="Furlaan" class="st15" cx="930.5" cy="705.5" r="1"/>
	<circle id="Paipata" class="st15" cx="983.5" cy="688.5" r="1"/>
	<circle id="Kassaya" class="st15" cx="250.9" cy="689.6" r="1"/>
	<circle id="Kalito" class="st15" cx="224.8" cy="748.6" r="1"/>
	<circle id="Maha" class="st15" cx="304.9" cy="702.6" r="1"/>
	<circle id="Puma_Putun" class="st15" cx="332.9" cy="715.6" r="1"/>
	<circle id="Kana" class="st15" cx="302.9" cy="738.6" r="1"/>
	<circle id="Monota" class="st15" cx="332.3" cy="771.7" r="1"/>
	<circle id="Mahalasaya" class="st15" cx="278.2" cy="801.8" r="1"/>
	<circle id="Kerra" class="st15" cx="367" cy="825.4" r="1"/>
	<circle id="Akata" class="st15" cx="412.1" cy="834.4" r="1"/>
	<circle id="Akapantaha" class="st15" cx="417.1" cy="770.3" r="1"/>
	<circle id="Teozaco" class="st15" cx="371.6" cy="123.3" r="1"/>
	<circle id="Chiauhti" class="st15" cx="370.6" cy="157.3" r="1"/>
	<circle id="Huatla" class="st15" cx="400.3" cy="167.6" r="1"/>
	<circle id="Teozauht" class="st15" cx="460.3" cy="88.5" r="1"/>
	<circle id="Tlapan" class="st15" cx="451.3" cy="124.5" r="1"/>
	<circle id="Cuahuaca" class="st15" cx="466.3" cy="180.6" r="1"/>
	<circle id="Teozapot" class="st15" cx="415.3" cy="202.6" r="1"/>
	<circle id="Miahuaca" class="st15" cx="489.3" cy="210.6" r="1"/>
	<circle id="Oaxtepex" class="st15" cx="389.6" cy="237.8" r="1"/>
	<circle id="Xilotepe" class="st15" cx="232.1" cy="234.4" r="1"/>
	<circle id="Malinalc" class="st15" cx="270.1" cy="242.4" r="1"/>
	<circle id="Teozauhn" class="st15" cx="470.7" cy="260.6" r="1"/>
	<circle id="Tecpan" class="st15" cx="371.6" cy="253.6" r="1"/>
	<circle id="Ocuitepe" class="st15" cx="417.7" cy="270.6" r="1"/>
	<circle id="Cempoalt" class="st15" cx="380.7" cy="293.9" r="1"/>
	<circle id="Tixpan" class="st15" cx="328.7" cy="280.9" r="1"/>
	<circle id="Xocotila" class="st15" cx="269.2" cy="322.6" r="1"/>
	<circle id="Xala" class="st15" cx="406.4" cy="325.8" r="1"/>
	<circle id="Chihuat" class="st15" cx="433.4" cy="352.8" r="1"/>
	<circle id="Yoalco" class="st15" cx="346.4" cy="365.8" r="1"/>
	<circle id="Tepecoal" class="st15" cx="380.4" cy="382.8" r="1"/>
	<circle id="Teozauhq" class="st15" cx="291.4" cy="399.5" r="1"/>
	<circle id="Tochtepe" class="st15" cx="310.4" cy="425.5" r="1"/>
	<circle id="Tecoalte" class="st15" cx="321.4" cy="450.6" r="1"/>
	<circle id="Coixl" class="st15" cx="377.4" cy="437.5" r="1"/>
	<circle id="Zempoala" class="st15" cx="423.5" cy="411.5" r="1"/>
	<circle id="Ixtlan" class="st15" cx="435.5" cy="439.5" r="1"/>
	<circle id="Tecoacui" class="st15" cx="450.2" cy="484.8" r="1"/>
	<circle id="Cuernava" class="st15" cx="466.2" cy="422.8" r="1"/>
	<circle id="Tanochetlan" class="st15" cx="485.2" cy="408.8" r="1"/>
	<circle id="Chuua" class="st15" cx="535.3" cy="405.8" r="1"/>
	<circle id="Xalapan" class="st15" cx="574.3" cy="405.9" r="1"/>
	<circle id="Sijin" class="st15" cx="598.4" cy="396.9" r="1"/>
	<circle id="Tlacozau" class="st15" cx="583.9" cy="429.5" r="1"/>
	<circle id="Acatlahu" class="st15" cx="561.9" cy="461.6" r="1"/>
	<circle id="Telapente" class="st15" cx="513.9" cy="481.6" r="1"/>
	<circle id="Teozaan" class="st15" cx="560.9" cy="497.6" r="1"/>
	<circle id="Cuilan" class="st15" cx="694.1" cy="503.5" r="1"/>
	<circle id="Cempoalc" class="st15" cx="710.1" cy="524.5" r="1"/>
	<circle id="Tlapan_00000054257187122067289960000013296638045367723959_" class="st15" cx="614.8" cy="495.4" r="1"/>
</g>
</svg>
