<?xml version="1.0" encoding="utf-8"?>
<!-- Generator: Adobe Illustrator 28.0.0, SVG Export Plug-In . SVG Version: 6.00 Build 0)  -->
<svg version="1.1" id="Layer_1" xmlns="http://www.w3.org/2000/svg" xmlns:xlink="http://www.w3.org/1999/xlink" x="0px" y="0px"
	 viewBox="0 0 256 256" style="enable-background:new 0 0 256 256;" xml:space="preserve">
<style type="text/css">
	.st0{fill:#86D0FB;}
</style>
<g>
	<path class="st0" d="M7.2,180.8c1.2-4.4,3.4-7.3,7-9.4c6.9-4,13.7-8.4,20.5-12.6c0.5-0.3,1-0.4,1.4-1.5c-5.8,1-11.4,2-17,2.9
		c-0.1-0.3-0.3-0.5-0.4-0.8c5.1-4.1,8.3-10.4,15.2-12.5c6.5-2,12.8-4.4,19.1-7.2c-4.2,0.3-8.4,0.7-12.9,1c0.5-1.9,1.8-2.7,2.8-3.6
		c10.8-10.3,21.6-20.6,32.5-30.9C81.1,100.7,86.9,95,93,89.6c4-3.5,5.7-8.1,7.8-12.6c1.7-3.8,3.4-7.6,5-11.4c0.9-2.1,2.3-3,4.5-2.9
		c4.5,0,9,0,13.6,0c1,0,2.2-0.1,2.5,1.2c0.3,1.3,0.1,2.4-1.2,3c-1.6,0.7-2.2,2.1-2.7,3.7c-5,14.2-10.6,28.1-16.1,42.1
		c-1.6,4.1-4.6,7.3-7,10.9c-4.5,6.7-9.3,13.3-13.8,20c-2.4,3.6-5.7,6-9.6,7.7c-22.3,9.6-44.5,19.3-66.8,28.9
		C8.5,180.4,8,180.6,7.2,180.8z"/>
	<path class="st0" d="M220.1,158c7.3,4.5,14.5,9.1,21.9,13.5c3.6,2.1,5.7,5,6.9,8.9c-1,0.6-1.6-0.1-2.3-0.4
		c-22.2-9.6-44.3-19.2-66.5-28.9c-3.9-1.7-7.1-4.2-9.5-7.7c-5.3-7.9-10.7-15.7-16.2-23.4c-5.6-8-8.8-17.2-12.2-26.2
		c-2.9-7.8-5.6-15.6-8.4-23.4c-0.5-1.4-1.2-2.7-2.7-3.3c-1.3-0.6-1.6-1.7-1.3-3c0.3-1.3,1.5-1.2,2.5-1.2c4.5,0,9,0,13.6,0
		c2.4,0,3.9,1.1,4.8,3.3c1.9,4.6,3.9,9.1,5.9,13.7c1.6,3.7,3.6,7.1,6.8,9.9c4.5,3.8,8.6,8.1,12.8,12.2
		c11.3,10.9,22.6,21.7,33.9,32.6c2,1.9,4.3,3.4,6.3,6.2c-4.7,0.2-8.9-0.7-13.8-0.9c2.2,1.5,4.1,1.9,5.9,2.5c3.9,1.4,7.8,3,11.8,4.1
		c4.6,1.3,8.3,3.8,11.4,7.4c1.8,2.1,3.8,3.9,5.7,5.9c-0.1,0.2-0.2,0.5-0.3,0.7c-5.6-1-11.2-1.9-16.8-2.9
		C220.2,157.6,220.1,157.8,220.1,158z"/>
	<path class="st0" d="M128.4,208.3c-22.4-0.2-41.5-8.3-57.3-24.1c-5-5-9.2-10.8-12.7-17c-1.1-2-1-3,1.3-3.9
		c4.2-1.6,8.3-3.5,12.4-5.4c1.8-0.8,2.9-0.6,4.2,1c8.3,10.6,18.9,18,31.7,22.2c26.4,8.6,54.5,0.1,72.5-22.1c1.4-1.7,2.4-2.1,4.3-1.1
		c4.1,2,8.4,3.8,12.7,5.5c1.8,0.7,2.1,1.5,1.1,3.2c-7,12.9-16.9,23-29.4,30.5C156.8,204.6,143.1,208.4,128.4,208.3z"/>
	<path class="st0" d="M128.8,47.7c39.4,0,73.2,29.2,79,68.2c0.4,2.9,0.6,5.9,0.9,8.8c0.1,0.5,0.2,1.2-0.3,1.5
		c-0.7,0.4-1.2-0.3-1.6-0.7c-3.4-3.2-6.8-6.5-10.3-9.7c-1.5-1.4-1.8-3.2-2-5c-3.1-30.9-27.3-55.6-58-59.2
		c-27.8-3.2-54.3,10.8-67.1,35.5c-4,7.8-6.4,16.1-7.2,24.8c-0.1,1.5-0.6,2.6-1.7,3.6c-3.3,3.1-6.5,6.2-9.8,9.3
		c-0.6,0.5-1.1,1.6-2,1.2c-0.8-0.4-0.5-1.5-0.4-2.3c0.6-9.7,2.6-19.2,6.7-28.1c10.5-23,27.9-38.1,52.2-45.2
		C114.2,48.5,121.4,47.6,128.8,47.7z"/>
	<path class="st0" d="M147.9,117.6c0,10.7-9.3,19.9-19.9,19.7c-11.2-0.2-20.1-9.1-20-20.2c0.1-11.2,8.9-19.8,20.3-19.7
		C139.4,97.5,148,106.3,147.9,117.6z"/>
	<path class="st0" d="M128,87.7c-3.9,0-7.1-3-7.1-6.9c-0.1-4,3.2-7.1,7.2-7.1c3.8,0,7,3.1,7,6.7C135.2,84.5,132.1,87.7,128,87.7z"/>
</g>
</svg>
