<?xml version="1.0" encoding="iso-8859-1"?>
<!-- Generator: Adobe Illustrator 27.9.0, SVG Export Plug-In . SVG Version: 6.00 Build 0)  -->
<svg version="1.1" id="station" xmlns="http://www.w3.org/2000/svg" xmlns:xlink="http://www.w3.org/1999/xlink" x="0px" y="0px"
	 viewBox="0 0 32 32" style="enable-background:new 0 0 32 32;" xml:space="preserve">
<polygon style="opacity:0.25;" points="30.732,15 24.232,3.742 23.655,2.742 22.5,2.742 9.5,2.742 8.345,2.742 7.768,3.742 
	1.268,15 0.691,16 1.268,17 7.768,28.258 8.345,29.258 9.5,29.258 22.5,29.258 23.655,29.258 24.232,28.258 30.732,17 31.309,16 "/>
<g>
	<path style="fill:#FFFFFF;" d="M21.345,6.742L26.691,16l-5.345,9.258H10.655L5.309,16l5.345-9.258H21.345 M22.5,4.742h-13L3,16
		l6.5,11.258h13L29,16L22.5,4.742L22.5,4.742z"/>
</g>
<g>
	<circle style="fill:#FFFFFF;" cx="16" cy="16" r="6"/>
</g>
</svg>
