<?xml version="1.0" encoding="iso-8859-1"?>
<!-- Generator: Adobe Illustrator 27.9.0, SVG Export Plug-In . SVG Version: 6.00 Build 0)  -->
<svg version="1.1" id="jovian" xmlns="http://www.w3.org/2000/svg" xmlns:xlink="http://www.w3.org/1999/xlink" x="0px" y="0px"
	 viewBox="0 0 32 32" style="enable-background:new 0 0 32 32;" xml:space="preserve">
<circle style="opacity:0.25;" cx="16" cy="16" r="14"/>
<path style="fill:#FFFFFF;" d="M27.607,19L27.607,19C27.607,19,27.607,19,27.607,19c0.116-0.449,0.207-0.907,0.27-1.374
	c0.007-0.049,0.016-0.098,0.023-0.148C27.959,16.993,28,16.502,28,16c0-0.351-0.02-0.697-0.052-1.039
	c-0.121-1.405-0.486-2.736-1.049-3.961l0,0l0,0c-0.68-1.48-1.651-2.794-2.842-3.875c0,0-0.001-0.001-0.001-0.001
	c-0.292-0.266-0.597-0.516-0.915-0.752c-0.024-0.018-0.047-0.036-0.071-0.053c-0.293-0.214-0.595-0.414-0.907-0.601
	c-0.051-0.031-0.1-0.062-0.151-0.092c-0.288-0.167-0.583-0.32-0.885-0.463c-0.077-0.037-0.153-0.076-0.232-0.112
	c-0.281-0.126-0.57-0.237-0.862-0.342c-0.102-0.037-0.201-0.078-0.304-0.111c-0.28-0.091-0.566-0.166-0.854-0.237
	c-0.118-0.029-0.234-0.065-0.354-0.091c-0.294-0.063-0.595-0.107-0.897-0.147c-0.117-0.016-0.23-0.041-0.348-0.053
	C16.856,4.025,16.431,4,16,4s-0.856,0.025-1.275,0.069c-0.118,0.013-0.231,0.037-0.348,0.053c-0.302,0.041-0.602,0.084-0.897,0.147
	c-0.12,0.026-0.235,0.062-0.354,0.091c-0.288,0.071-0.575,0.146-0.854,0.237c-0.103,0.034-0.203,0.075-0.304,0.111
	c-0.292,0.104-0.581,0.216-0.862,0.342c-0.078,0.035-0.154,0.075-0.232,0.112c-0.302,0.143-0.598,0.296-0.885,0.463
	c-0.051,0.03-0.101,0.061-0.151,0.092C9.525,5.905,9.223,6.105,8.93,6.319C8.907,6.336,8.883,6.354,8.859,6.372
	C8.542,6.608,8.237,6.858,7.945,7.124c0,0-0.001,0.001-0.001,0.001C6.753,8.206,5.782,9.52,5.102,11l0,0l0,0
	c-0.563,1.225-0.928,2.557-1.049,3.962C4.02,15.304,4,15.649,4,16c0,0.502,0.041,0.993,0.1,1.478
	c0.006,0.05,0.015,0.098,0.023,0.148c0.063,0.467,0.155,0.925,0.27,1.374c0,0,0,0,0,0l0,0c0.404,1.565,1.112,3.004,2.063,4.253
	c0.014,0.018,0.027,0.037,0.041,0.055c0.613,0.795,1.319,1.511,2.109,2.131c0.039,0.031,0.081,0.059,0.12,0.09
	C9.07,25.792,9.428,26.035,9.8,26.26c0.071,0.043,0.14,0.087,0.212,0.129c0.829,0.479,1.718,0.862,2.657,1.133
	c0.119,0.034,0.24,0.062,0.361,0.093c0.355,0.091,0.716,0.165,1.083,0.223c0.137,0.022,0.272,0.046,0.411,0.063
	C15.008,27.96,15.499,28,16,28s0.992-0.04,1.477-0.1c0.138-0.017,0.274-0.041,0.411-0.063c0.367-0.058,0.727-0.132,1.083-0.223
	c0.121-0.031,0.242-0.058,0.361-0.093c0.939-0.271,1.828-0.654,2.657-1.133c0.072-0.042,0.141-0.086,0.212-0.129
	c0.372-0.225,0.73-0.469,1.074-0.731c0.04-0.031,0.081-0.059,0.12-0.09c0.79-0.62,1.497-1.335,2.109-2.131
	c0.014-0.018,0.027-0.037,0.041-0.055C26.495,22.004,27.203,20.565,27.607,19z M10.025,8h11.949
	c0.816,0.611,1.536,1.341,2.133,2.169H7.893C8.49,9.341,9.209,8.611,10.025,8z M24.647,11c0.534,0.919,0.933,1.926,1.151,3H6.202
	c0.219-1.074,0.618-2.081,1.151-3H24.647z M16.35,19c0.563-1.179,1.756-2,3.15-2s2.587,0.821,3.15,2h2.889
	c-0.345,1.095-0.882,2.103-1.558,3H22.65c-0.563,1.179-1.756,2-3.15,2s-2.587-0.821-3.15-2H8.019c-0.676-0.897-1.213-1.905-1.558-3
	H16.35z"/>
</svg>
